<svg xmlns="http://www.w3.org/2000/svg" viewBox="0 0 32 32" fill="white"><path d="M19.11 17.17c-.28-.14-1.64-.81-1.9-.9-.25-.09-.43-.14-.6.14-.18.28-.69.9-.84 1.08-.15.18-.31.21-.59.07-.28-.14-1.18-.43-2.25-1.38-.83-.74-1.39-1.65-1.55-1.93-.16-.28-.02-.43.12-.57.12-.12.28-.31.42-.46.14-.15.18-.25.28-.42.09-.18.05-.32-.02-.46-.07-.14-.6-1.44-.83-1.98-.22-.53-.44-.46-.6-.47h-.51c-.18 0-.46.07-.7.32-.25.25-.92.9-.92 2.2s.94 2.56 1.07 2.74c.14.18 1.85 2.83 4.48 3.96.63.27 1.12.43 1.5.55.63.2 1.2.17 1.65.1.5-.07 1.64-.67 1.87-1.32.23-.65.23-1.2.16-1.32-.07-.12-.25-.18-.53-.32z"/><path d="M16 3C9.37 3 4 8.37 4 15c0 2.63.85 5.06 2.3 7.03L4 29l7.18-2.26A11.94 11.94 0 0 0 16 27c6.63 0 12-5.37 12-12S22.63 3 16 3zm0 21.82c-2.2 0-4.23-.64-5.94-1.75l-.42-.25-4.26 1.34 1.38-4.14-.28-.43A9.82 9.82 0 1 1 16 24.82z"/></svg>